<?xml version="1.0" standalone="no"?><!DOCTYPE svg PUBLIC "-//W3C//DTD SVG 1.1//EN" "http://www.w3.org/Graphics/SVG/1.1/DTD/svg11.dtd" [<!ENTITY nbsp " ">]><svg data-noselect="" viewBox="129.500000000005 136 400 300" width="400" ref="svg_canvas" height="300" preserveAspectRatio="none" version="1.1" xmlns="http://www.w3.org/2000/svg" style="background: #ffffff;">
    <def></def>
    <g id="shape_LQsdHj1D4W" ref="shape_LQsdHj1D4W" key="shape_LQsdHj1D4W" transform="translate(275.2612533098,226) rotate(0,54.238746690203,60) scale(1,1)" style="cursor:move;display:inline;opacity:1;" filter="">
            <g style="display:inline"><rect fill="rgba(0,0,0,0)" width="128.47749338040603" height="140" x="-10" y="-10"></rect><svg version="1.1" id="图层_1" xmlns="http://www.w3.org/2000/svg" xmlns:xlink="http://www.w3.org/1999/xlink" x="0px" y="0px" viewBox="0 0 97.7 113.3" style="enable-background:new 0 0 97.7 113.3;" xml:space="preserve" width="108.47749338040602" height="120" class="style-removed" preserveAspectRatio="none" data-parent="shape_LQsdHj1D4W">

<g>
	<g>
		<path d="M66.8,112.6c-0.3,0-0.5-0.1-0.7-0.3L1.2,61.2c-0.3-0.2-0.5-0.6-0.5-0.9c0-0.4,0.2-0.7,0.4-0.9L75.7,0.3
			c0.5-0.4,1.3-0.3,1.7,0.2c0.4,0.5,0.3,1.3-0.2,1.7L3.8,60.3l63.7,50.3c0.5,0.4,0.6,1.2,0.2,1.7C67.5,112.5,67.1,112.6,66.8,112.6z
			" fill="#0EA3F0" stroke-width="0"></path>
	</g>
	<g>
		<path d="M28.1,102.2c-0.3,0-0.5-0.1-0.7-0.3c-0.3-0.2-0.4-0.5-0.4-0.8l-8.3-90.4c0-0.4,0.1-0.7,0.4-1
			c0.3-0.3,0.7-0.3,1-0.3L96.8,26c0.6,0.1,1,0.8,0.9,1.4c-0.1,0.6-0.8,1-1.4,0.9L21.2,12l8,87.6L96.4,91c0.7-0.1,1.2,0.4,1.3,1
			c0.1,0.6-0.4,1.2-1,1.3l-68.4,8.8C28.2,102.1,28.2,102.2,28.1,102.2z" fill="#38B8D6" stroke-width="0"></path>
	</g>
	<g>
		<path d="M65.9,113.3c-0.1,0-0.2,0-0.3,0L27.3,103c-0.3-0.1-0.5-0.3-0.7-0.5L0.2,60.7c-0.2-0.3-0.2-0.7-0.1-1l18-50.4
			c0.1-0.4,0.5-0.7,0.9-0.8L76.3,0c0.4-0.1,0.9,0.1,1.1,0.4l20.1,26c0.4,0.5,0.3,1.3-0.2,1.7c-0.5,0.4-1.3,0.3-1.7-0.2L75.9,2.5
			L20,10.7L2.5,59.9l25.9,40.9l37.4,9.9l30.1-19.7c0.5-0.4,1.3-0.2,1.6,0.3c0.4,0.5,0.2,1.3-0.3,1.6l-30.6,20
			C66.4,113.2,66.2,113.3,65.9,113.3z" fill="#1157AF" stroke-width="0"></path>
	</g>
</g>
</svg></g>
        </g><g id="shape_DGLWGF3GID" ref="shape_DGLWGF3GID" key="shape_DGLWGF3GID" transform="translate(280.18,106.23753835225) rotate(0,149.52560184506,175.60728625003) scale(1,1)" style="cursor:move;display:inline;opacity:1;" filter="">
            <g style="display:inline"><svg xmlns="http://www.w3.org/2000/svg" version="1.1" xmlns:xlink="http://www.w3.org/1999/xlink" width="240.28" height="350.92" viewBox="0 0 240.28 350.92" preserveAspectRatio="none" data-parent="shape_DGLWGF3GID"><rect fill="rgba(0,0,0,0)" width="45" height="58" x="48.82" y="146.46"></rect><g data-width="44.9144" transform="translate(48.82, 0)"><path d="M7.76-35.30L12.30-24.31L8.98-24.31L12.30-16.21L5.57-16.21L1.03-27.24L4.34-27.24L1.03-35.30L7.76-35.30ZM1.03 0.10L5.57-13.91L12.30-13.91L7.76 0.10L1.03 0.10ZM43.89-29.98L43.89-27.88L37.40-27.88L37.40-29.39Q37.40-29.83 37.08-30.17Q36.76-30.51 36.32-30.51L36.32-30.51L19.97-30.51L19.97-27.88L13.47-27.88L13.47-30.51L13.47-35.30L19.97-35.30L38.52-35.30Q39.59-35.30 40.57-34.88Q41.55-34.47 42.28-33.73Q43.01-33.00 43.45-32.03Q43.89-31.05 43.89-29.98L43.89-29.98ZM20.36-26.75L27.88-26.75L22.02-19.58L14.50-19.58L20.36-26.75ZM42.96-19.58L35.44-19.58L29.58-26.75L37.15-26.75L42.96-19.58ZM43.89-16.60L43.89-11.77L32.07-11.77L32.07-0.10L25.29-0.10L25.29-11.77L13.47-11.77L13.47-16.60L25.29-16.60L25.29-18.31L32.07-18.31L32.07-16.60L43.89-16.60ZM16.55-10.20L23.34-10.20L20.26-0.10L13.47-0.10L16.55-10.20ZM40.81-10.20L43.89-0.10L37.10-0.10L34.08-10.20L40.81-10.20Z" transform="translate(0 192.46) " fill="rgb(56, 56, 154)" stroke="rgb(56, 56, 154)" stroke-width="0.081" data-glyph-w="44.9144" data-glyph-h="48.82" data-glyph-ascender="41.93638" data-glyph-descender="-6.8836200000000005"></path></g></svg></g>
        </g><g id="shape_CdiRfis8Wz" ref="shape_CdiRfis8Wz" key="shape_CdiRfis8Wz" transform="translate(319.10145554736,268.13213284174) rotate(0,75.175158475787,46.8599780105714) scale(1,1)" style="cursor:move;display:inline;opacity:1;" filter="">
            <g style="display:inline"><svg xmlns="http://www.w3.org/2000/svg" version="1.1" xmlns:xlink="http://www.w3.org/1999/xlink" width="89.08" height="93.12" viewBox="0 0 89.08 93.12" preserveAspectRatio="none" data-parent="shape_CdiRfis8Wz"><rect fill="rgba(0,0,0,0)" width="37" height="15" x="13.02" y="39.06"></rect><g data-width="36.173730468749994" transform="translate(13.02, 0)"><path d="M0.58-2.99L0.58-2.99L1.75-3.10Q1.83-2.40 2.13-1.95Q2.43-1.50 3.07-1.22Q3.71-0.95 4.50-0.95L4.50-0.95Q5.21-0.95 5.75-1.16Q6.29-1.37 6.55-1.73Q6.82-2.10 6.82-2.53L6.82-2.53Q6.82-2.97 6.56-3.30Q6.31-3.62 5.72-3.85L5.72-3.85Q5.35-3.99 4.06-4.30Q2.78-4.61 2.26-4.88L2.26-4.88Q1.60-5.23 1.27-5.75Q0.94-6.27 0.94-6.91L0.94-6.91Q0.94-7.62 1.34-8.23Q1.74-8.84 2.51-9.16Q3.28-9.48 4.22-9.48L4.22-9.48Q5.26-9.48 6.05-9.15Q6.84-8.81 7.27-8.16Q7.69-7.51 7.72-6.69L7.72-6.69L6.54-6.61Q6.45-7.49 5.90-7.94Q5.35-8.39 4.27-8.39L4.27-8.39Q3.15-8.39 2.64-7.98Q2.13-7.57 2.13-6.99L2.13-6.99Q2.13-6.49 2.49-6.17L2.49-6.17Q2.85-5.84 4.35-5.50Q5.86-5.16 6.41-4.91L6.41-4.91Q7.23-4.53 7.62-3.96Q8.00-3.38 8.00-2.63L8.00-2.63Q8.00-1.89 7.58-1.23Q7.15-0.57 6.35-0.21Q5.56 0.16 4.56 0.16L4.56 0.16Q3.29 0.16 2.44-0.21Q1.58-0.58 1.10-1.32Q0.61-2.06 0.58-2.99Z" transform="translate(0 51.06) " fill="rgb(56, 56, 154)" stroke="rgb(56, 56, 154)" stroke-width="0.022" data-glyph-w="8.68423828125" data-glyph-h="14.54578125" data-glyph-ascender="11.786660156249999" data-glyph-descender="-2.7591210937499997"></path><path d="M2.28 0L1.04 0L1.04-9.32L2.28-9.32L2.28-5.49L7.12-5.49L7.12-9.32L8.35-9.32L8.35 0L7.12 0L7.12-4.39L2.28-4.39L2.28 0Z" transform="translate(8.68423828125 51.06) " fill="rgb(56, 56, 154)" stroke="rgb(56, 56, 154)" stroke-width="0.022" data-glyph-w="9.402626953124999" data-glyph-h="14.54578125" data-glyph-ascender="11.786660156249999" data-glyph-descender="-2.7591210937499997"></path><path d="M7.98 0L1.03 0L1.03-9.32L7.77-9.32L7.77-8.22L2.26-8.22L2.26-5.37L7.42-5.37L7.42-4.27L2.26-4.27L2.26-1.10L7.98-1.10L7.98 0Z" transform="translate(18.086865234374997 51.06) " fill="rgb(56, 56, 154)" stroke="rgb(56, 56, 154)" stroke-width="0.022" data-glyph-w="8.68423828125" data-glyph-h="14.54578125" data-glyph-ascender="11.786660156249999" data-glyph-descender="-2.7591210937499997"></path><path d="M2.17 0L0.99 0L0.99-9.32L2.26-9.32L7.15-2.00L7.15-9.32L8.33-9.32L8.33 0L7.07 0L2.17-7.32L2.17 0Z" transform="translate(26.771103515624997 51.06) " fill="rgb(56, 56, 154)" stroke="rgb(56, 56, 154)" stroke-width="0.022" data-glyph-w="9.402626953124999" data-glyph-h="14.54578125" data-glyph-ascender="11.786660156249999" data-glyph-descender="-2.7591210937499997"></path></g></svg></g>
        </g>
  </svg>